<svg id="Layer_1" data-name="Layer 1" xmlns="http://www.w3.org/2000/svg" viewBox="0 0 617.82 878.18"><defs><style>.cls-1{fill:#030101;}.cls-2{fill:#020202;}.cls-3{fill:#151414;}.cls-4{fill:#141414;}.cls-5{fill:#191919;}.cls-6{fill:#1d1d1d;}.cls-7{fill:#130e10;}.cls-8{fill:#131317;}.cls-9{fill:#fefefe;}.cls-10{fill:#9c1616;}.cls-11{fill:#c91e24;}.cls-12{fill:#1f1d21;}.cls-13{fill:#c71e23;}.cls-14{fill:#452e2e;}.cls-15{fill:#ad232f;}.cls-16{fill:#c9c9c6;}.cls-17{fill:#b22632;}.cls-18{fill:#cc1f25;}.cls-19{fill:#941623;}.cls-20{fill:#e23e30;}.cls-21{fill:#eb6b6b;}.cls-22{fill:#0b0202;}.cls-23{fill:#fcfcfc;}.cls-24{fill:#e86968;}.cls-25{fill:#fbfbfb;}.cls-26{fill:#941622;}.cls-27{fill:#e14756;}.cls-28{fill:#e14655;}.cls-29{fill:#ba1c1a;}.cls-30{fill:#e04655;}.cls-31{fill:#c93b49;}.cls-32{fill:#dc4250;}.cls-33{fill:#160506;}.cls-34{fill:#c91e25;}.cls-35{fill:#921622;}.cls-36{fill:#bb3541;}.cls-37{fill:#d4333e;}.cls-38{fill:#931623;}.cls-39{fill:#e24655;}.cls-40{fill:#df4250;}.cls-41{fill:#6d2027;}.cls-42{fill:#901521;}.cls-43{fill:#b41c21;}.cls-44{fill:#d74554;}.cls-45{fill:#a31824;}.cls-46{fill:#ea4757;}.cls-47{fill:#a11918;}.cls-48{fill:#37090d;}.cls-49{fill:#d84352;}.cls-50{fill:#5d0f15;}.cls-51{fill:#df3f4c;}.cls-52{fill:#111;}.cls-53{fill:#e23f30;}.cls-54{fill:#522c2b;}.cls-55{fill:#4f2827;}.cls-56{fill:#552525;}.cls-57{fill:#3a0909;}.cls-58{fill:#440a09;}.cls-59{fill:#0a0202;}.cls-60{fill:#e64958;}.cls-61{fill:#2d0c0e;}.cls-62{fill:#60171b;}.cls-63{fill:#440c0e;}.cls-64{fill:#0d0404;}.cls-65{fill:#2f1211;}.cls-66{fill:#481e1c;}.cls-67{fill:#b91b1a;}.cls-68{fill:#9c1615;}</style></defs><title>red</title><path d="M353.17,214.53c-2.82-4.46-2.55-8.91,0-13.38,3.37-3.44,8.1-3.84,12.29-5.47,27.72-6.74,56-5.33,83.12.31,30.57,6.36,59.83,1.14,89.56-2.27a169.4,169.4,0,0,1,37.25-.57c9.65,2,19.32,4.83,28.76-.82,1.42-1.3,2.87-2.57,4.27-3.89,14.26-15.44,13.27-26.57-4.23-37.46-19.22-12-36.84-26.17-58.38-34.79-42.46-17-83.62-15.59-124.56,3.66-8.91,4.19-18,8.1-26.6,12.84a118,118,0,0,0-13.74,8.84c-11.26,6.76-19.57,17.79-32.33,22.37-2.88-2.49-4.08-6-5.34-9.37,0-.43-.11-1.1.11-1.25,14.53-10.24,13.89-27.59,19.55-41.94,6.82-17.29,17.39-30.84,34.76-38.7,18.65-8.45,37.11-17.36,55.58-26.21,3.81-1.82,7.84-3.72,10.85-6.55,7.75-7.28,15.33-9.2,23.53-1.11,2.72,2.68,6.22,2.4,9.53,3.15,31,7,57.45,22.63,81.34,43.07-1.64,8.84,7.72,10.5,10.89,16.23.21.39,1-5,4.6-3.16,2.95,4.57,7.34,8.79,8.6,13.79,3.84,15.18,10.87,27.6,22.9,38.13,9.37,8.21,9.78,23.65,3,35.16-4.77,8.15-12,15.11-9.64,26,.57,2.62-2.37,4.29-4.59,5.65a26.1,26.1,0,0,0-6.81,18.1c-5.83,37.67-14.18,44.85-52.14,44.9-2.58,0-5.15,0-7.72,0-28.17-.31-40.11-8.87-50.3-35.31-2.62-6.81-2.54-17.17-12.56-17.3s-10.21,10.23-13.1,16.93c-12.67,29.36-21.85,35.58-53.86,35.69h-2.58c-39.17,0-48.47-8.1-54.46-47.3C360.61,225.51,357.6,219.72,353.17,214.53Z" transform="translate(-177.84 -33.5)"/><path class="cls-1" d="M306.69,743.85l-5-1.42c-38-11.13-39.53-13-43.61-52.89-3.44-8.72.39-17.68-.85-26.45-.09-2.12.25-4.25.15-6.36-.26-6,4.18-12.84,1.46-17.34s-11.09-1.67-16.35-4.58c-4.7-1.7-10.14-2.15-12.78-7.39-6.71-4.32-10.75-11-15-17.4-3.25-4.89-4.35-10.44-1.63-15.92,18.3-36.94,28-77.19,44.66-114.77,15.81-35.73,31.63-71.42,56.31-102.23a15.72,15.72,0,0,0,3.74-10.43c.32-29.56,17.95-47.6,47.88-49.47,5.84-1.8,11.89-.73,17.82-1,4.05-.2,8,2.23,8.59,6.35.79,5.38-4.19,5.27-7.76,6.11-16.54.72-33.07,1.54-46.09,13.93-12.36,14.59-12,23.25,2.24,34.54,12.95,10.23,21.77,24.24,33.67,35.46,9.39,8.86,19,17.4,29,25.51,9.67,7.84,19.9,12.25,33.27,7.22,12.49-4.7,19.38-.28,25,12.5-10.29,11.31-4.7,25.81-7.6,38.62-.83,3.69,2.36,5,5.7,5.27,3.72.33,6.81,1.41,6.27,6.15-3.56,6.13-12,7.43-14.45,14.6-6.57,24,2.16,47.65,1.95,71.5,0,5.59,3.6,8.37,9.08,8.86,3,.26,6,.09,9,.64,4,.75,9.7.51,9.36,6.39-.3,5.19-5.54,4.1-7.69,4.53,17.95-.88,20.11-3.37,17.33-22-1-6.83-1.63-13.77-.8-20.52,4.88-39.26.31-78.83,4-118.11a10.08,10.08,0,0,1,11-7.17c17.56,1.84,31.43-7,45.76-14.75,33-14.75,60.53-37.29,87.49-60.69,3.48-3.56,7.65-6.49,10-11,.1-4.5-1.77-5.42-5.1-2.55-2.24,1.92-2.4,5.26-4.27,7.54-7.11,5.36-10.09,3.15-8.78-5.19,1.05-6.67,3.83-12.9,6.87-18.89,2.75-5.4,1.27-8.71-4.12-10.76-12.07-4.09-24.94-4.26-37.11-7.82-3.57-1.28-7.58-1.35-10.74-3.73-1.89-1.41-2.75-3.42-1.48-5.48s3.35-2.24,5.39-.76c15.07-.28,30.2-.77,44.75,4,10.15,3.35,13.77,10,18.21,20.8,5.3,12.92,3.43,27.83,9.51,37.58,17.25,27.64,35,54.89,50.11,83.84,13.57,26,22,53.92,32.13,81.14,6,16.07,18.83,27.51,24.42,43.33-.44,3-2.3,5.36-3.24,8.13-5,12.16-11.28,23.39-22,31.58-4.35,3.78-9.12,4.49-14.32,1.92-5.9-1.77-12-4.53-14.21-10.09-2.93-7.25-7.63-4.88-13.32-4.51,1.83,12.32,6.08,23.8,7.6,35.93,3.08,24.49-2.14,47.46-9.63,70.34-3.85,11.77-10.35,21.32-21.33,27.49-9.47,1-18.94,2-28.49,1.1-46.71-1.16-93.39-5.87-140-4.7-52.67,1.32-105.49.89-158,6.8a95.11,95.11,0,0,1-12.85.43C327.53,746.27,316.68,748.59,306.69,743.85Z" transform="translate(-177.84 -33.5)"/><path class="cls-2" d="M486.06,911.43c-97.62,0-195.25-.2-292.87.26-11.85,0-15.52-3-15.34-15.14.53-36.37,9.17-68.73,38.69-92.93,12-9.87,24.76-16.92,40.83-16.17a93.34,93.34,0,0,0,14.19,0c27.13-2.9,50.2,4.3,73.73,19.55,33.64,21.8,71.95,32.29,112.93,35.38,45.7,3.45,89.2-2.17,131.37-18.89a235.79,235.79,0,0,0,52.44-29c6.26-4.6,12.39-7,19.87-7,14.19,0,28.53,1.33,42.54-.25,35.74-4.05,68.31,23.14,80.49,54.39,7.06,18.1,11.25,36.47,10.68,56.22-.32,10.86-3.42,13.88-14.11,13.81-72.25-.41-144.5-.21-216.74-.21Z" transform="translate(-177.84 -33.5)"/><path class="cls-3" d="M381.39,325.78l9.82-1.26C384,315,374,318.94,365.71,317.2c4.85-4.12,10.77-.78,17.26-2.59-14.12-18.73-23.61-39.14-28.08-61.85-2.51-12.74.24-25.56-1.72-38.23,6.56,3.22,11.87,7.28,10.66,15.75-1.78,29.53,9.5,55,27.56,76.78,33.65,40.59,78,53,127.75,38.59C569.7,331,595.59,293.09,605,242.75c.62-3.34,1.33-6.78-.66-10-.14-7.46,1.23-14,9.92-16,2.8,33.76-4.77,64.68-25.21,92.1-.62.83-.33,2.35-.46,3.55-3.16.86-6.58,2-1.32,4.75,2.76,1.44,6.88-.51,9.12,3-8.32,4.47-19.28,3.59-25.39,12.56-34.18,26.62-72.05,38.69-115.36,29.12-13.49-3-26-8.44-38-15.14-10.71-6.5-19.83-16-33.32-17.24C382.55,329.38,381.71,327.54,381.39,325.78Z" transform="translate(-177.84 -33.5)"/><path class="cls-4" d="M649.8,741.45c8.94,3.41,18.41.92,27.5,2.5-17.42-1.14-26.41,11.47-37.43,21.82-41.48,39-91.18,58.35-148,60.53S384,813.48,339.24,778.13c-12.42-9.82-24.21-20.48-32.55-34.28,9.95-2.11,19.87-.12,29.81.2-8.88,7-6.43,12.38,1.25,19.1,36.61,32,79.13,49,127.51,52,43.35,2.64,84.65-4.49,123.42-24.87C612.24,777.89,631.25,760,649.8,741.45Z" transform="translate(-177.84 -33.5)"/><path class="cls-5" d="M728.19,624.79c5.17.35,9.71-1,13.34-4.91,6.15,4.49,11.33,10.41,18.68,13.14,12.64,4.71,20.34-1.22,18.62-14.58-1.55-12-9-20.85-16.93-29.27.52-3.38,2.94-4.91,5.82-6,13.72,9.4,20.84,22.21,22.61,39s-11.53,28.72-32.54,21.48C746.22,639.6,739.61,628.55,728.19,624.79Z" transform="translate(-177.84 -33.5)"/><path class="cls-6" d="M260.56,660.56c1.2,9.83,1,19.55-2.44,29-16.16-4.8-27.52-20.32-28.33-39.17-.32-7.64,0-15.3,0-23,3.63,3.42,9.8.61,12.93,5.25-3.33,15.31-3.21,29.73,9.46,41.51C257.45,670.23,252.69,661.7,260.56,660.56Z" transform="translate(-177.84 -33.5)"/><path class="cls-7" d="M343.21,154.53l5.88,8.4c1.39,8.48-2.25,18.17,6.08,24.93,3.15,4.14,9.31.25,12.36,4.61.74,2.8-.45,4.52-3.06,5.43-2.74,4.72-7.25,3.24-11.33,3.25-3.51-3.05-7.26-5.87-10.47-9.21C328.78,177.49,329,169.18,343.21,154.53Z" transform="translate(-177.84 -33.5)"/><path class="cls-8" d="M594,98.06c-4.92,2,1.14,6.32-3.79,10.68-4.32-5.21-8.27-10.9-13.17-15.6-4.38-4.2,0-5.64,1.47-8.15C585.57,87,589.88,92.41,594,98.06Z" transform="translate(-177.84 -33.5)"/><path class="cls-9" d="M604.34,232.76c6.6,5.05,2.65,11.84,1.91,17.31C598,310.44,541.81,356.89,480.32,354.76c-62.74-2.17-115-51.87-119.21-113.51-.25-3.67-3.45-8.66,2.72-11,.36,11.31,4.06,21.76,8.69,31.84,3.42,7.46,9.3,12.05,18,12.44,7.27.33,14.51,1.46,21.78,1.52,40.27.31,45.57-3.42,58.66-41.26,2.35-6.81,4.38-12.48,13.61-12.4s11.32,5.66,13.5,12.53c2.06,6.5,4.66,12.84,7.22,19.18,5.16,12.74,15,19.49,28.35,21.08s26.5.82,39.8.23c15.14-.67,23.71-8.35,27-22.62C601.94,246.18,603.05,239.45,604.34,232.76Z" transform="translate(-177.84 -33.5)"/><path class="cls-9" d="M364.47,197.9l2.95-5.36c2.09-5.7,5.65-10.57,8.88-15.63,10.93-13.63,20.82-28.25,36.35-37.42,12.43-7.4,26.21-11.28,39.92-15.38,5.31-1.19,10.86-1,16.05-2.86a93.46,93.46,0,0,1,25.5-.06c23.78,3.13,46.64,9,67,22.36a19.54,19.54,0,0,1,6.79,4.54c6.2,7.07,14.72,11.6,20.68,18.94a99.62,99.62,0,0,1,6.22,8.08c4.13,6.28,7.68,13.64,4,20.23-2.74,4.91-10.18,1.42-15.48,2.1a9.16,9.16,0,0,1-5-.74c-26.7-.88-53.21.44-79.35,6.58a57,57,0,0,1-25.62.38C437.37,195.44,401,195.19,364.47,197.9Z" transform="translate(-177.84 -33.5)"/><path class="cls-10" d="M566,149.58,560.68,147c-17.12-15.22-37.51-21.65-60-22.28-14.53-5.37-29.22-.82-43.83-.72-5.07.66-9.84,2.59-14.8,3.73-10.23,5.24-22.9,5.44-31.07,15-16.18,7.67-23.72,23.39-34,36.52-.9,6.07-4.33,10.34-9.48,13.36-4.29-1.77-9.42,3.39-13.33-1.62-5.37-24,12.78-36.43,25.53-51.49,4.14-2.83,7.28-7.34,12.92-7.63,19-7.87,38-15.45,58.09-20.53,18.16-4.6,35.88-6.79,54.58-3.59,38.92,6.68,72.77,21.69,98.35,53.18,7.87,9.7,5.73,20.07,6.31,30.53l-3.18,2.88c-4,1.82-7.66-.09-8-3.59C596.46,169.9,579.77,161,566,149.58Z" transform="translate(-177.84 -33.5)"/><path class="cls-11" d="M609.86,191.4c-4.43-.43-4-3.08-3.35-6.42,2.29-11.22-3.39-18.61-10.42-27.1-29-35-68.85-46.22-110.74-48.5-28-1.54-55.12,10.34-81.57,20.37-3.51,1.32-6.58,6.63-11.25,2.06,20.32-14.64,43.17-23.3,67.58-27.94,53.91-10.25,99.31,9.4,141.29,40.73,1.71,1.28,3.18,2.9,4.94,4.1C627.16,162.94,628.11,174.33,609.86,191.4Z" transform="translate(-177.84 -33.5)"/><path class="cls-12" d="M595.18,129.7c-14.62-8.45-29.86-15.5-45.14-22.45-35.66-16.23-72.6-16-109.21-5.55-25,7.14-49.12,17.74-69.76,34.49-2.08,1.68-4.14,3.55-6.74,1.54a6.39,6.39,0,0,1-2.46-4.25c0-4.54,3.8-1.55,5.64-2.52,11.75-6.22,23.3-12.83,35.19-18.75,54.56-27.14,109.44-31.32,164.59-1.62C577.2,115.93,588.31,119.51,595.18,129.7Z" transform="translate(-177.84 -33.5)"/><path class="cls-13" d="M379.61,139.44c1.1.56,4.72.75,2.33,2.27-7.53,4.82-10.79,13.14-17.06,18.91-7.84,7.2-11.58,15.61-6.34,26.23,2.78,5.63-2.31,3.42-4.46,4.08-10.55-7.86-11.83-15-5-28Z" transform="translate(-177.84 -33.5)"/><path class="cls-14" d="M566,149.58c17,7.78,29.94,19.06,33.55,38.44.77,4.13,3.81,5.26,7.14,6.25-8.79,8.48-18.61,4.86-28.33,2.43h19.08c.77-19-11.6-29.06-23.44-39.31C571.14,154.92,567.15,153.76,566,149.58Z" transform="translate(-177.84 -33.5)"/><path class="cls-15" d="M528.84,61.31c-.13,2.85-2,3.52-4.29,3.58-2.78.07-5.34-1-6.19-3.58-.8-2.4,1.5-3.85,3.53-4.22C525.28,56.46,527.37,58.59,528.84,61.31Z" transform="translate(-177.84 -33.5)"/><path class="cls-16" d="M483,43c.05,3.46-1.83,4.42-4,4.25-3.07-.23-7.48,1.87-8.61-2.63-.82-3.29,2.8-3.51,5.19-3.9C478.5,40.23,481.2,40.84,483,43Z" transform="translate(-177.84 -33.5)"/><path class="cls-17" d="M438.26,65.69c-1.17,2.45-3,4.49-5.71,4.46-2.27,0-4.09-1.51-3-4.25,1-2.57,3-4.08,5.92-3.78C437.6,62.34,438.11,63.89,438.26,65.69Z" transform="translate(-177.84 -33.5)"/><path class="cls-18" d="M666.07,495.79c-4-6.77-3.16-14.75-5.48-21.94-.76-2.37-1.07-5.41-4.29-5.34-2.85.06-2,3.05-2.85,4.79-3.06,6.37-3.34-1.1-5.17-1.15a8.76,8.76,0,0,1-5.46-5.31c1.85,2.78.89,7.19,2.22,11.1,6.81,18.94,16.67,36.74,21.05,56.58,6.51,22.63,11.68,45.7,12.82,69.14,2.37,48.77-19.11,85.62-69,99.46-4.46,1.23-9.19,2.82-13.47-.78,3.93-9.37,0-14.61-7.71-20.78-22.2-17.82-34.21-42.07-39.28-69.88-.07-9.83-4.51-12.09-13-7.52-1.5.81-3,1.54-4.58,2.26-15.13,7.16-16,6.67-16.86-9.52a8.34,8.34,0,0,0-1-3.64c-.06-32.14,5.11-64.2.77-96.47-1.12-8.27,1.27-17,2-25.55.41-4.84,3-8.14,7.53-9.44,12.54-3.63,23.53-10.34,34.6-16.9,12.78-7.57,26.7-11.38,41.33-13.06,2.75-.31,6.19.65,7.57-3.48-3.88-5.57-10.58-.81-15.87-4.6,3-4.47,8.06-5.62,12.14-8.08,13.18-4.43,23.29-13.51,33.73-22.12,3.17-2.62,5.24-6.93,10.2-7,5.34,1.64,7.92,6.28,11.11,10.26,18.53,23.18,33.11,48.79,46.15,75.34,2.25,4.58,3.95,9.51,7.71,13.23,13.1,24.62,18.4,52.34,30.67,77.3C744.61,578,731,587.61,715.22,582c-12.35-4.37-20.6-13.63-25.79-25.5-7.47-17.09-9.36-35.48-11.39-53.68-.89-8.05-.76-16.21-3.32-24.62C670.27,483.51,673.66,492.53,666.07,495.79Z" transform="translate(-177.84 -33.5)"/><path class="cls-18" d="M422.9,542.52c-.1,18.41-1.58,37,8.29,53.9,2.26,3.6.9,5.93-2.92,6.29-8.55.83-10.27,6.67-12.29,13.74-7.72,27-22,50.48-43.71,68.29-7.7,6.31-4.07,12.8-5.14,19.36-11,4.89-21.05-.13-30.92-3.69-32.2-11.61-49.91-37.66-50.8-71.64-.42-15.69,2.55-30.61,6.07-45.62,6.88-21.16,13.89-42.28,20.6-63.49,7-22.17,11.52-44.93,14.87-67.9.56-3.85,2-8.27-3.72-15.17,1.69,16.35-11.31,23.66-12.93,36.25-7,1.87-4.15,9.48-7.76,13.33-1.4,10.9.59,22.11-3.08,32.79-1.72,27.2-16.45,48.86-30.42,70.76-5.5,8.63-13.28,13.34-24.06,9.53-11.34,3.7-1.31,6.78.28,10.11-3.32,8.67-9.17,4.78-13.95,2.26-4.06-2.13-6.5-6.49-9.58-9.93-.09-.85-.57-2.21-.23-2.48,13.59-10.35,8.29-27.78,15.38-41,7.64-14.19,11.46-30.43,16.91-45.79,4.86-13.72,9.67-27.46,16.88-40.19,11.52-17.44,18.66-37.29,30.05-54.77,7.83-12,13.6-25.86,27.34-33,11.65,8.87,20.29,20.37,29,32.35-5,1-5.77-5.25-11.08-4.42,16.83,28.2,41.29,44.23,72.8,49.35,9.9,1.61,14.94,4.43,12.57,15.45A278.32,278.32,0,0,0,426.38,509c-.66,6.88-3.86,10.46-9.7,13.7-22.66,12.56-40.37,30.5-53.8,52.56-1.82,3-6.94,6.43-1.76,10.94,1.89,4.29-1.27,6.16-3.69,8.54,15.9-17.48,34.57-31.76,53.36-45.85C414.38,546.22,417.47,542,422.9,542.52Z" transform="translate(-177.84 -33.5)"/><path class="cls-19" d="M291.48,583.15c1.15,15.41-3,30.45-2.63,45.92.89,42.72,34.68,74.92,77.95,73,11.65,1.46,21.66,11.27,34.7,6.19-8.48-2-17.18-3.19-25-7-9.21-4.43-10-8.72-2.63-15.2,6.77-5.93,14.19-11.1,20.85-17.21,2.82-2.58,6.12-5.09,10.33-2.15,6.73,7,15.13,8.78,24.54,8.76,32.47-.05,64.81-4.32,97.32-2.79,7,.32,12.57-2.41,15.85-8.82,2.78-5.45,7.25-8.21,13.16-8.93,11.1,2.13,12.85,12.4,17,20.29,2,3.77-1.11,5.29-4.8,4.61-3-.56-4.77-3.32-7-4.29,6.18,6.21,14.76,8.82,23,12.15,3,1.21,7.17,1.82,7.13,6.16,0,4-3.67,5.46-6.68,7A35.43,35.43,0,0,1,568.6,705c6.26.28,11.85-1.89,17.41-4.44,3.3-1.51,6.82-4.23,10.52-.58,9.33,4.22,17.56-.93,25.25-4.24,39.09-16.8,57.84-49.89,52.57-96.55-2.44-21.59-5.49-43.11-8.26-64.66,13.58,28.4,19.84,59.16,28.87,89.05,9.89,32.76,6.62,64.26-7.12,95.12-6,13.41-15.29,18.13-29.52,16.65-25.52-2.66-51.09-5.93-76.69-6.44-50.68-1-101.43-1.5-152.08.15-32.83,1.06-65.69,4.06-98.48,7.78-18.47,2.09-37-5-54-13.73-4.37-2.25-4.92-7.07-6-11-8.08-29.44-5.84-58.59,4.17-87.12C280.21,610.9,283.78,596.21,291.48,583.15Z" transform="translate(-177.84 -33.5)"/><path class="cls-9" d="M649.8,741.45c1.43,4.21-2,6.22-4.13,8.66-80.18,91.4-240.85,92.79-323,2.8-.84-.92-1.49-2-2.53-3.43,4.92-4,12.15-.52,16.37-5.43,57.21-5.53,114.63-7.47,172-7.81,42-.25,84,1,125.87,5.24C639.49,742,644.67,741.48,649.8,741.45Z" transform="translate(-177.84 -33.5)"/><path class="cls-20" d="M552.44,433.86c-15.1,8.12-29,19.9-48.21,15.15-3.07-.76-5.75,1.17-8.22,2.93a6.15,6.15,0,0,0-1.76,3.25c-1.89,7.53-5.39,14.06-14,14.66-9.59.67-16.15-4.56-20.52-12.8-5.11-10.13-13.83-14.14-23.43-8.9-13.32,7.28-23.54,1.3-33.12-5.68-27.89-20.33-48.18-48.71-74-71.4-7.05-6.21-3.61-18.54,6.26-29.63,19,12.46,32.23,30.65,47.09,47.25,14,15.65,27,32.82,50,36,7.33,2.46,14.44,5.49,21.67,8.2,13.79,5.18,13.77,5.24,21.07,20,6.91-17.62,22.75-16.9,36.43-20.57,23.91-6.41,38.37-25.08,54.32-41.79,3.23-3.39,5.48-7.77,10.21-9.53,4.79-1.34,7.75-5.1,11.15-8.32,11.09-10.5,20.41-23,35.5-28.8,6.86-2.61,8-10.65,12.36-15.77,7.19,1.76,8.1,5.86,5.23,12.24-3.26,7.24-7,14.6-8.36,22.29-1.49,8.34,3,2.35,5.18,1.23,2.86-2.87,5-6.7,9.42-7.56,4.88-1,6.06,1.13,4.09,5.45-1.89,4.89-6.06,7.51-10.15,10.21a114.62,114.62,0,0,0-35.26,24.65C590,412,570,421.29,552.44,433.86Z" transform="translate(-177.84 -33.5)"/><path class="cls-18" d="M459.71,457.05c2.41,1.65,4.8,3.34,7.24,4.94,12.67,8.32,15.49,7.78,24.29-4.41,1.44-2,3.18-3.77,4.77-5.64-.38,34.15-.26,68.31-1.37,102.44-.55,16.79-2.1,33.57,1.71,50,1.63,7-.53,9.19-6.78,10.58-11.34,2.52-22.57,3.57-36.06.51,8.81-6.78,18.77-1.19,28.07-7.15-8.14-3.86-14.85-1.87-21.18-2-5.72-.09-11-.9-11-7.77.26-25.25-7.59-50.18-2.81-75.56.29-1.56,1.54-2.94,2.34-4.41,10.31,5.41,17.48-3.43,26.71-5.55-3.7-2.87-9.09-.38-11.26-5-.27-1.7-.77-4.08-2.72-3.48-13.36,4.1-13.28-3-11.12-12.62.92-4.12.67-8.52.8-12.8C451.64,470.84,450.29,461.93,459.71,457.05Z" transform="translate(-177.84 -33.5)"/><path class="cls-18" d="M558,655.45C545.32,667.69,534.12,680,512.57,677c-29.65-4.06-59.65,3.18-89.62,2.05-9.69-.37-17.94-2.39-20.53-13.38-.19-.38-.64-.87-.53-1.12,5.83-13.65,10.73-27.71,18-40.73a88.84,88.84,0,0,1,19.2,1.09c3.58,3.34,1.48,11.13,8.29,11.63,7.77.57,5.63-8.14,9.57-11.34,12.5,16,29.31,15.6,46.88,12.31,2,2.92,3.17,7,8.32,5.45,5.75-1.78,3.85-6.53,4.35-10.38,11.46-2.76,19.88-12.42,31.88-14a4.6,4.6,0,0,1,3.09,2C552.59,632.46,561,642.88,558,655.45Z" transform="translate(-177.84 -33.5)"/><path class="cls-21" d="M431.29,427.13c-11.09-.42-20.5-5.21-28.28-12.52a355.66,355.66,0,0,1-42.78-47.85c-7.17-9.72-20.44-13.11-24.78-25.32,11.93-15.15,29-15.28,45.94-15.66,14.42,1.66,26.06,9,36.82,18.09-1.83,6.5-6.9,3.4-10.54,3.17-11.89-.75-23.54-3.29-35.23-5.54a38.27,38.27,0,0,0-18.8,1c4.52,11.23,15.4,16.71,22.61,25.44,15.74,19,32.66,36.85,51.68,52.63C429.93,422.26,431.49,424.28,431.29,427.13Z" transform="translate(-177.84 -33.5)"/><path class="cls-19" d="M666.07,495.79c5.82-7.81.26-18.91,8.43-26.81,5.09,3.45,4.84,9,4.5,14.18-1.34,20.36,3.27,39.92,7.9,59.45,3.18,13.4,10.85,24.21,21.54,32.65,14,11,31.59,4.62,35.27-12.54,1.75,5.68,4.46,10.59,10.35,13-13.5,3-16.56,18.75-28.66,23.45-31.74.12-24.78,4.77-33.76-23.85-4.36-13.88-8.7-27.86-11.47-42.1s-4.51-28.57-3.62-44.28c-7.74,3.91-3.11,11.1-6.76,15.18C665.49,502.71,666,499.14,666.07,495.79Z" transform="translate(-177.84 -33.5)"/><path class="cls-22" d="M420.53,624.69c-2.9,15.06-9.57,28.45-18.11,41-8.61,8.37-17,17.06-27.52,23.08-7,4-5.28,6.6.84,9,11.23,4.4,22.77,7.48,35.44,7.33-10.77,11.72-26,10.45-44.38-3.06-7.49-7.06-5.48-12.13,2-18.47,24.1-20.45,41.13-45.45,44.81-77.72.66-5.8,4-4,7.07-4.48,3.92-.65,10.18,3.36,10.52-5,7.42,8.19-4.78,6.74-5.39,11C423,612.85,426.08,620.08,420.53,624.69Z" transform="translate(-177.84 -33.5)"/><path class="cls-23" d="M761.9,589.17c13,6.23,23.32,24.31,21.4,37.45-1.19,8.07-5.83,12.78-13.9,11.9-12.27-1.34-23-5.81-27.87-18.64A60.91,60.91,0,0,0,761.9,589.17Z" transform="translate(-177.84 -33.5)"/><path class="cls-24" d="M635.26,328.07c1.49,8.45-3.08,15.26-9.57,17.75-18,6.91-28.35,22.34-41.63,34.5-1.69,1.54-3,4.57-6.16,2.2,2.27-12.07,12-18.79,19.7-26.85,3.75-3.94,8.53-7,12.52-10.83,2.38-2.1,5.3-3.41,7.89-5.2,2.17-1.5-.38-.8-.69-1.23-1-1.37.35.73-1.33.14-15.58-2.46-31.15-4.55-46.41-8.35,5.88-11.54,16.91-9.23,26.81-10C609.4,322.58,623,322.19,635.26,328.07Z" transform="translate(-177.84 -33.5)"/><path class="cls-25" d="M260.56,660.56c-2.42,2.92-1.45,6.49-1.95,9.79-.55,3.57,2.12,8.82-1.82,10.38-4.49,1.78-7.47-3.14-10-6.29C238.3,664,236,651.64,236.56,638.5c.18-4.12,1.79-6.29,6.12-5.83,6.62,2.08,13.28,2.94,20.95,0C263.88,642.57,258.94,651.31,260.56,660.56Z" transform="translate(-177.84 -33.5)"/><path class="cls-26" d="M245,599.25c13.08-.24,20.49-8,26.43-18.74,11-19.82,24.54-38.37,28-61.55,2,15.92-5.37,29.93-9.62,44.48-3.33,11.39-8.19,22.35-12.7,33.36-6.22,15.2-12.84,16.86-25.93,6.89C249.18,602.15,247.06,600.73,245,599.25Z" transform="translate(-177.84 -33.5)"/><path class="cls-27" d="M503.83,637.55c-.71,3.28-2.37,5.2-6.06,5.38a77.26,77.26,0,0,1-32.71-5c-6-2.39-9-6.14-8.11-12.68,9.17-1,18.44-1.53,27.49-3.23C497.42,619.57,503.5,624.72,503.83,637.55Z" transform="translate(-177.84 -33.5)"/><path class="cls-28" d="M422.9,542.52C398.27,562,374.07,582,349.09,601.58l12-15.36C378.7,565.71,398,547.11,421.35,533,424.73,536,423,539.39,422.9,542.52Z" transform="translate(-177.84 -33.5)"/><path class="cls-29" d="M552.44,433.86A94.83,94.83,0,0,1,574,416.3a188.69,188.69,0,0,0,38.78-30.91c7.52-7.75,16.4-13.55,27.91-13.46C614.47,397.15,585.72,418.73,552.44,433.86Z" transform="translate(-177.84 -33.5)"/><path class="cls-30" d="M713,485.42c-10.81-8.61-14.08-22.08-20.32-33.36-12.87-23.26-29.35-43.73-44.94-64.95-.78-.57-1.06-1.17-.87-1.81s.42-1,.66-1c3.67-7.22,6.12-2.75,8.83.85A401.77,401.77,0,0,1,691,439.44C698.89,454.47,705.72,470.07,713,485.42Z" transform="translate(-177.84 -33.5)"/><path class="cls-31" d="M548.07,619.15c-2.28,5.55-7.88,5.83-12.43,7.45-4,1.44-8.72,2.46-10.15,6.62-4.14,12.08-6.21,2.27-9-.6-.78-1.78-1.56-3.57-2.35-5.35-3.63-8.62-3-14.55,8.4-15.27,4.61-.3,9-2.76,13.32-4.53,3.9-1.58,8.33-4.09,11.9-.23C551,610.67,550.48,615.11,548.07,619.15Z" transform="translate(-177.84 -33.5)"/><path class="cls-32" d="M328.06,384.47c-21.36,23.67-34.86,52.28-50.34,79.67-1.72,3.05-1.34,8.38-7.05,8.14,12.53-30.47,27.11-59.8,47.52-85.9C320.85,383,323.15,376.65,328.06,384.47Z" transform="translate(-177.84 -33.5)"/><path class="cls-33" d="M548.07,619.15c-.36-4.07-.73-8.14-1.14-12.73-10.91,2.84-18.92,10.37-30.45,9.36-5.14-.44-.48,7.67-2.33,11.49-2.59.29-8.81,5-6-2.44,4-10.38,5.08-20.83,5.89-31.57,3.59,16.11,3.59,16.11,20.66,8,15.55-7.33,16.61-6.69,17.64,10.67-2.41,2.26.54,6.29-2.73,8.26A8.9,8.9,0,0,1,548.07,619.15Z" transform="translate(-177.84 -33.5)"/><path class="cls-34" d="M725.4,599.14c9.52-7.86,10.44-26.22,28.66-23.45,3.89,3.44,2.11,6.94.11,10.45-8.17,15.52-17.06,19.53-28.77,13Z" transform="translate(-177.84 -33.5)"/><path class="cls-35" d="M221.73,601.69c7.73,2.93,12.43,15.12,23.53,7.67,3.5,2.42,7,4.89,10.51,7.24,2.23,1.48,7.33-.32,6.72,4-.66,4.74-5.48,4.42-9.3,4.61Q232.67,626.23,221.73,601.69Z" transform="translate(-177.84 -33.5)"/><path class="cls-28" d="M464.41,508.08,484,509.55c.13.89.27,1.79.4,2.68-9.88,4.31-19.68,8.81-29.66,12.85-7,2.83-4.82-3.4-5.8-6.43C451.89,511.89,459,511.15,464.41,508.08Z" transform="translate(-177.84 -33.5)"/><path class="cls-36" d="M433.61,508.07c1.42-11.44,2.29-23,4.49-34.28,1.1-5.6-5.34-15.71,3.48-16,7-.21,2.05,9.87,2.59,15.16C445.47,485.62,443.61,497.92,433.61,508.07Z" transform="translate(-177.84 -33.5)"/><path class="cls-37" d="M508.27,557.65c-.44,14.27,2.47,28.79-2.19,45.55-7.76-17.77-9.09-32.78-2.06-48C506.32,554.48,507.41,555.85,508.27,557.65Z" transform="translate(-177.84 -33.5)"/><path class="cls-38" d="M725.4,599.13c13.66,4.69,20.62-5.46,28.77-13-1.44,12.44-10.9,19.68-18.36,28.18-3.19,3.64-6.23.76-9.07-.78-3.8-2.06-4.74-4.8-1-7.87C728.72,603.25,726.7,601.24,725.4,599.13Z" transform="translate(-177.84 -33.5)"/><path class="cls-39" d="M420.53,624.69c1.84-5.74-4.75-14.05,5.27-17.29,9,2.41,12.71,8.78,13.29,17.55C432.85,628.72,426.66,628.79,420.53,624.69Z" transform="translate(-177.84 -33.5)"/><path class="cls-40" d="M506,534.54c-5.34-14.71-1.39-30.56-5.59-45.39-1.56-5.54,7.13-1.28,5.91-6.34q2.74-1.14,3.45,1.73c.31,14.13.18,28.26,0,42.39C509.76,529.76,511.85,534.35,506,534.54Z" transform="translate(-177.84 -33.5)"/><path class="cls-41" d="M506,534.54c6.6-7.76,1.77-16.84,2.63-25.25.89-8.73-.12-17.66-.3-26.5-.35-4.61-5.29-10.08,2.48-13.15-.5,27.73,3.35,55.55-1.76,83.18-1.95-2-3.91-2.2-5.89-.05C500.42,546.13,497,539.37,506,534.54Z" transform="translate(-177.84 -33.5)"/><path class="cls-42" d="M647.57,384.32l.21,2.79c-9.78,6.9-16.31,17.45-26.88,23.57-5.34,3.09-10.44,5.76-16.76,5C617.84,404.15,632.55,394,647.57,384.32Z" transform="translate(-177.84 -33.5)"/><path class="cls-43" d="M432.21,581.53c-1.48-7.67-2.88-14.06-3.9-20.51-.76-4.79,2.39-7.88,6.45-7.35,6,.79,2,5,1.13,7.47C433.74,567.39,442.3,574.32,432.21,581.53Z" transform="translate(-177.84 -33.5)"/><path class="cls-44" d="M434.31,527c-2.81,6.85,5.5,16-5.46,22.3-1.15-10.18-1.22-19.37,2-28.43C433.47,522,433.9,524.49,434.31,527Z" transform="translate(-177.84 -33.5)"/><path class="cls-45" d="M302.54,486.17c-.15-3.71-.42-7.43-.4-11.15,0-2.34-.7-5.84,2.37-6.13,1.79-.17,3.85,2.53,5.79,3.95C310.67,479,311.18,485.25,302.54,486.17Z" transform="translate(-177.84 -33.5)"/><path class="cls-46" d="M510.79,469.64c-3.18,3.94-1.13,8.86-2.48,13.15l-2,0c-.79-4.6-2.19-9.19-2.16-13.78,0-3.35,0-9.39,4.4-8.91C513.87,460.69,510.47,466.24,510.79,469.64Z" transform="translate(-177.84 -33.5)"/><path class="cls-47" d="M650.82,361.72c-.58-2.49-.72-5.32-4.58-2.66-2.76,1.9-5.94,3.2-8.93,4.77,3.39-13,7.38-15.87,13.81-9.79C653.86,356.63,653.36,359.26,650.82,361.72Z" transform="translate(-177.84 -33.5)"/><path class="cls-48" d="M441.82,603.14c6.94,8.71,3.49,16.26,6,22.51C441,620.69,441.39,613.73,441.82,603.14Z" transform="translate(-177.84 -33.5)"/><path class="cls-49" d="M434.31,527c-2.61-1.22-3.12-3.63-3.46-6.13-.15-4.67,2-8.94,6.44-5.44C442.49,519.45,436.92,523.41,434.31,527Z" transform="translate(-177.84 -33.5)"/><path class="cls-50" d="M645,477.94l-7.78-17.85c6.86,1.86,8.08,7.63,11,12.06C645.6,473.18,645.57,475.7,645,477.94Z" transform="translate(-177.84 -33.5)"/><path class="cls-51" d="M503.14,552.77c.91-3.15-1-7.14,2.2-9.89,5.12,2.44,2.41,6.85,3.69,9.94-.25,1.61-.51,3.22-.76,4.83L504,555.21C503.72,554.4,503.43,553.59,503.14,552.77Z" transform="translate(-177.84 -33.5)"/><path class="cls-52" d="M487,906.25H200.36c-17.11,0-18-.07-16.86-17.7,2.34-37,15.24-68.56,49.57-87.54,10.47-5.8,21.66-8.38,34-8.69,24.68-.62,46.43,2.19,68.4,17.46C386.29,845.06,445,856,505.92,851.66,557.65,848,605.46,831,647.54,799.77c6.8-5,13.82-7.92,22.56-7.26a166.69,166.69,0,0,0,27.09,0c45.42-4,73,27.93,84.63,59.34,4.57,12.4,8.14,25,8.59,38.71.4,12.22-2.91,16-15.59,15.95C678.87,906,582.91,906.25,487,906.25Z" transform="translate(-177.84 -33.5)"/><path class="cls-53" d="M569.58,330.2c17.28-4.14,33,5,49.75,5.76-.42,7.2-8.73,5.18-11.37,9.79-8.86,6.26-14.21,16.88-25.31,20.36-23.73.41-46.9,5.64-70.38,8-31.09,3.12-61.95,9.9-93.58,4.23-12.29-2.21-24.54-4.1-36.37-8.06a15.82,15.82,0,0,1-3.87-1.09c-12-7.87-19.31-21-32-28.16,16.22-8.58,32.13-.83,48.12,1,7.86.91,15.61,2.74,23.61,1.83C471.62,372.05,522,366.32,569.58,330.2Z" transform="translate(-177.84 -33.5)"/><path class="cls-54" d="M500.23,123.27c20.71-.37,39.67,4.6,56.13,17.82,2.12,1.7,3.94,3.12,4.32,5.87-20.13-12.08-42-19.29-65.09-23C496.92,122.37,498.55,122.66,500.23,123.27Z" transform="translate(-177.84 -33.5)"/><path class="cls-55" d="M376.89,179.19c7.24-15.91,16.34-30.16,33.3-37.42a3,3,0,0,1,4.17.67C398.53,151.28,389.55,167.11,376.89,179.19Z" transform="translate(-177.84 -33.5)"/><path class="cls-56" d="M414.36,142.44l-4.17-.67c7.75-10.45,19.8-12.19,31.15-15.37,3.58-1.61,7.14-1.9,10.66.21C439.37,131.69,426.19,135.45,414.36,142.44Z" transform="translate(-177.84 -33.5)"/><path class="cls-57" d="M500.23,123.27l-4.64.74a123.92,123.92,0,0,0-27.63.19c-4.69.31-10.08,4.22-13.38-2.61,12.59-1.71,25.44,2.57,38-1.88C495,118.85,498.32,120.67,500.23,123.27Z" transform="translate(-177.84 -33.5)"/><path class="cls-58" d="M454.58,121.59c3.84,4.07,9,1.5,13.38,2.61l-16,2.41-10.66-.21C444.9,122.44,450.66,124.56,454.58,121.59Z" transform="translate(-177.84 -33.5)"/><path class="cls-59" d="M549.63,620.24c.62-2.85-.28-6.2,2.73-8.26,5.75,24.24,14.69,46.8,33.92,63.85,3.21,2.84,6.28,6.43,10.09,7.89,14.55,5.61,8.4,10.78.16,16.25-10.43,2.26-19.65,10.85-32.67,5.57,8.32-5.51,18.72-4.63,26.77-12.18-14.24-5.2-28.53-9.29-38-25.51l21,12.59c-6.46-10.32-11.06-17.66-15.66-25C554.73,643.83,549.79,632.6,549.63,620.24Z" transform="translate(-177.84 -33.5)"/><path class="cls-60" d="M650.83,625c3.89,4.45,10.79,6.5,12.14,16.17-38.46-28.46-76.33-53.77-116.79-76.43,10.49-5.75,16.8,3.56,24.76,5.42,23.95,9.53,44.13,25.06,64.41,40.43C640.58,615.27,647.07,618.65,650.83,625Z" transform="translate(-177.84 -33.5)"/><path class="cls-61" d="M634.7,612.36l-63.76-42.24c10.91-2.23,17.85,6.08,26,10.45a194.26,194.26,0,0,1,40.55,29.07C637.87,611.9,637.27,613.14,634.7,612.36Z" transform="translate(-177.84 -33.5)"/><path class="cls-62" d="M634.7,612.36l2.78-2.72c5.44,4.25,12.57,7,13.35,15.32C645.17,621.11,639,617.9,634.7,612.36Z" transform="translate(-177.84 -33.5)"/><path class="cls-63" d="M390.64,647.31c-6,14.74-15.14,26.57-29.95,33.22C370.24,669.06,380.92,658.62,390.64,647.31Z" transform="translate(-177.84 -33.5)"/><path class="cls-64" d="M377.14,366.46l1.84.5c5.93,2.08,9.83,6.45,13.74,11.2,9.56,11.62,19.95,22.49,32.55,31,10.17,8.26,22.54,12.38,34.5,16.62,7.71,2.74,15.23,13.5,17.49,12.1,18.84-11.63,43.64-10.34,59.56-27.74,3.45-3.78,7.22-7.29,10.87-10.89,12.94-11.42,23.46-25.44,37.79-35.38,7.29-6.6,12.39-15.49,21.23-20.5,3.17-1.7,5.45-1.71,5.36,2.8-12,11.58-24.44,22.68-34.16,36.37-9.31,10-18.44,20.18-27.95,30-11.24,11.6-24.49,20.81-40.47,23.51-15.44,2.6-29,6.48-34.23,23.32-2.3-1.6-3.48-2-3.52-2.52-1.18-14-9.68-20.16-22.63-22.78-6.16-1.24-11.9-4.54-17.83-6.9-22.62-15.6-39.58-36.85-57.24-57.41C373.32,367,374.52,366,377.14,366.46Z" transform="translate(-177.84 -33.5)"/><path class="cls-65" d="M377.14,366.46l-3.1,3.26q-13.79-14.34-27.56-28.7C361.26,344,367.65,357.1,377.14,366.46Z" transform="translate(-177.84 -33.5)"/><path class="cls-66" d="M612.07,346.14c-1-2.49-3.22-2.53-5.36-2.8L619.33,336c2.39,0,4.88-3.44,6.73-1.23,2.39,2.86-1.17,4.27-3,5.45C619.5,342.38,615.73,344.18,612.07,346.14Z" transform="translate(-177.84 -33.5)"/><path class="cls-67" d="M585.48,363.84a216.61,216.61,0,0,1-35,36.64c-41.89,11.79-83.85,22.58-127.69,10.44C405.44,399,392.62,382.56,379,367c20.81,4.68,41.73,9.25,63.07,9.74,29.56.7,58.52-6.16,87.83-8.68C548.38,366.43,566.51,359,585.48,363.84Z" transform="translate(-177.84 -33.5)"/><path class="cls-68" d="M422.76,410.92c32.44,4.13,64.34-.78,96.31-5.4,10.5-1.51,20.36-6.94,31.37-5-15,18.36-33.94,30.06-57.62,32.76-6.81.77-9.29,5.2-12.76,9.42-3.72,4.52-6.94,5.76-7.73-1.85-.68-6.65-5.14-8.31-10.72-10.79C448.45,424.17,433.57,421.58,422.76,410.92Z" transform="translate(-177.84 -33.5)"/></svg>